<svg aria-hidden="true" style="position: absolute; width: 0; height: 0; overflow: hidden;" xmlns="http://www.w3.org/2000/svg" xmlns:xlink="http://www.w3.org/1999/xlink">
    
    <symbol viewBox="0 0 32 32" id="menu">
        <path d="M3 10h26v1H3v-1zm0 6h26v1H3v-1zm0 6h26v1H3v-1z" style="fill: var(--color1, currentColor);" fill="#000"></path>
    </symbol>
    
    <symbol viewBox="0 0 32 32" id="cart">
        <path d="M20,12V10a4,4,0,0,0-8,0v2H8V26H24V12ZM13,24H11V15h2Zm0-14a3,3,0,0,1,6,0v2H13Zm4,14H15V15h2Zm4,0H19V15h2Z"/>
    </symbol>
    
    <symbol viewBox="0 0 32 32" id="search">
        <path d="M27 25.339l-6.2-6.2a8.17 8.17 0 0 0 1.647-4.916C22.447 9.69 18.758 6 14.223 6 9.69 6 6 9.689 6 14.223c0 4.535 3.689 8.224 8.223 8.224A8.17 8.17 0 0 0 19.14 20.8l6.2 6.2L27 25.339zM6.99 14.219c0-3.987 3.242-7.23 7.229-7.23 3.986 0 7.229 3.243 7.229 7.23 0 3.986-3.243 7.229-7.23 7.229-3.986 0-7.228-3.243-7.228-7.23z" style="fill: var(--color1, currentColor);" fill="#000"></path>
    </symbol>
    
    <symbol viewBox="0 0 32 32" id="facebook">
        <path d="M14.993 22.974v-7.497h2.477l.392-2.484h-2.87v-1.246c0-.648.213-1.267 1.145-1.267H18V8h-2.644c-2.224 0-2.83 1.462-2.83 3.488v1.504H11v2.485h1.526v7.497h2.467z" style="fill: var(--color1, currentColor);" fill="#fff"></path>
    </symbol>
    
    <symbol viewBox="0 0 30 30" id="instagram">
        <path d="M14.749 8.396c2.068 0 2.313.008 3.13.045.756.035 1.166.16 1.439.267.361.14.62.307.89.578.271.27.44.528.58.89.106.272.232.682.267 1.436.037.815.045 1.06.045 3.125 0 2.066-.008 2.31-.045 3.126-.035.754-.161 1.164-.267 1.436-.14.361-.309.619-.58.89a2.4 2.4 0 0 1-.89.578c-.273.106-.683.232-1.439.267-.816.037-1.061.045-3.13.045s-2.314-.008-3.13-.045c-.756-.035-1.166-.16-1.439-.267a2.4 2.4 0 0 1-.89-.578 2.396 2.396 0 0 1-.58-.89c-.106-.272-.232-.682-.267-1.436-.037-.816-.045-1.06-.045-3.126 0-2.065.008-2.31.045-3.125.035-.754.161-1.164.267-1.436.14-.362.309-.62.58-.89a2.4 2.4 0 0 1 .89-.578c.273-.106.683-.232 1.439-.267.817-.037 1.062-.045 3.13-.045m0-1.394c-2.104 0-2.368.01-3.194.047-.824.038-1.388.168-1.88.36-.51.197-.942.462-1.372.892a3.79 3.79 0 0 0-.894 1.37c-.191.492-.322 1.054-.36 1.877-.038.825-.047 1.089-.047 3.19 0 2.1.01 2.363.047 3.188.038.824.169 1.386.36 1.878.198.509.463.94.894 1.37.43.43.862.695 1.372.892.492.191 1.056.322 1.88.36.826.037 1.09.046 3.194.046s2.368-.009 3.194-.046c.824-.038 1.388-.169 1.88-.36.51-.197.942-.462 1.372-.892.431-.43.696-.861.894-1.37.191-.492.322-1.054.36-1.878.038-.825.047-1.088.047-3.189 0-2.1-.01-2.364-.047-3.189-.038-.823-.169-1.385-.36-1.877a3.79 3.79 0 0 0-.894-1.37 3.798 3.798 0 0 0-1.372-.892c-.492-.192-1.056-.322-1.88-.36-.826-.038-1.09-.047-3.194-.047" style="fill: var(--color1, currentColor);" fill="#fff"></path>
        <path d="M14.749 10.765a3.975 3.975 0 0 0-3.978 3.972 3.975 3.975 0 0 0 3.978 3.972 3.975 3.975 0 0 0 3.978-3.972 3.975 3.975 0 0 0-3.978-3.972zm0 6.55a2.58 2.58 0 0 1-2.582-2.578 2.58 2.58 0 0 1 2.582-2.578 2.58 2.58 0 0 1 2.582 2.578 2.58 2.58 0 0 1-2.582 2.579zM19.814 10.608a.929.929 0 1 1-1.858 0 .929.929 0 0 1 1.858 0" style="fill: var(--color1, currentColor);" fill="#fff"></path>
    </symbol>
    
    <symbol viewBox="0 0 30 30" id="twitter">
        <path style="fill: var(--color1, currentColor);" fill="#fff" d="M23.683 9.601a6.843 6.843 0 0 1-1.965.538 3.432 3.432 0 0 0 1.504-1.89 6.906 6.906 0 0 1-2.174.83A3.415 3.415 0 0 0 18.55 8a3.42 3.42 0 0 0-3.334 4.195 9.721 9.721 0 0 1-7.054-3.57 3.414 3.414 0 0 0 1.06 4.561 3.427 3.427 0 0 1-1.55-.429v.043a3.422 3.422 0 0 0 2.744 3.35c-.286.078-.589.12-.901.12a3.29 3.29 0 0 1-.645-.063 3.424 3.424 0 0 0 3.197 2.373 6.873 6.873 0 0 1-4.25 1.46c-.277 0-.55-.016-.817-.046a9.685 9.685 0 0 0 5.246 1.537c6.296 0 9.737-5.207 9.737-9.722l-.012-.443a6.829 6.829 0 0 0 1.712-1.765z"></path>
    </symbol>
    
    <symbol viewBox="0 0 30 30" id="youtube">
        <path style="fill: var(--color1, currentColor);" fill="#fff" d="M24.146 10.923s-.192-1.41-.741-2.01c-.714-.809-1.51-.809-1.868-.869-2.61-.21-6.537-.21-6.537-.21s-3.928 0-6.537.21c-.357.06-1.154.06-1.868.87-.55.63-.741 2.009-.741 2.009s-.193 1.649-.193 3.297v1.56c0 1.648.193 3.297.193 3.297s.192 1.41.741 2.01c.714.809 1.648.779 2.06.869 1.483.15 6.345.21 6.345.21s3.928 0 6.537-.21c.357-.06 1.154-.06 1.868-.87.55-.63.741-2.009.741-2.009s.193-1.649.193-3.297v-1.56c0-1.648-.193-3.297-.193-3.297zm-11.069 6.715v-5.726l5.054 2.878-5.054 2.848z"></path>
    </symbol>
    
    <symbol viewBox="0 0 32 32" id="triangle-b">
        <path d="M19.721 14.06l-3.39 4.661-3.39-4.662h6.78z" style="fill: var(--color1, currentColor);" fill="#FFF"></path>
    </symbol>
    
    <symbol viewBox="0 0 32 32" id="dealers">
        <path style="fill: var(--color1, #000);" d="M7 7h18v12H7z"></path>
        <path style="fill: var(--color2, #fff);" d="M9 8h5v5H9z"></path>
        <path style="fill: var(--color1, #000);" d="M9 13h5v5H9zM14 8h5v5h-5z"></path>
        <path style="fill: var(--color2, #fff);" d="M14 13h5v5h-5zM19 8h5v5h-5z"></path>
        <path style="fill: var(--color1, #000);" d="M19 13h5v5h-5zM7 8h2v18H7z"></path>
    </symbol>
    
    <symbol viewBox="0 0 32 32" id="arrow-r">
        <path d="M6 15h14v-3l6 4-6 4v-3H6z" style="fill: var(--color1, currentColor);"></path>
    </symbol>
    
    <symbol viewBox="0 0 32 32" id="user">
        <g id="UI"><circle id="Oval" cx="16" cy="10.5" r="4"/>
        <path d="M23.7,20.3a5.1,5.1,0,0,0-4.9-3.8H13.2a5.1,5.1,0,0,0-4.9,3.8L7,25.5H25ZM13,24.5H11v-4a2,2,0,0,1,2-2Zm4,0H15v-6h2Zm4,0H19v-6a2,2,0,0,1,2,2Z"/></g>
    </symbol>
    
    <symbol viewBox="0 6 73.575 9.697" id="proj-e">
        <path d="M56.113,9.801v2.286h4.459V9.801H56.113zM39.167,8.506c0.139,0.144,0.216,0.335,0.215,0.535v3.615c0,0.199-0.077,0.39-0.215,0.533c0.145-0.139,0.227-0.332,0.226-0.533V9.04C39.395,8.838,39.313,8.645,39.167,8.506L39.167,8.506z M39.019,6h-7.803c-1.438,0-2.605,1.192-2.605,2.663v4.37c0,1.472,1.167,2.664,2.605,2.664h7.803c1.432,0,2.6-1.192,2.6-2.663v-4.37C41.62,7.191,40.457,6,39.019,6L39.019,6zM38.642,13.416h-7.063c-0.147,0.001-0.29-0.045-0.408-0.132c-0.042-0.024-0.081-0.056-0.112-0.093c-0.138-0.145-0.216-0.336-0.216-0.535V9.041c-0.001-0.304,0.178-0.579,0.456-0.701c0.088-0.039,0.184-0.059,0.28-0.058h7.063c0.198,0,0.388,0.082,0.525,0.225c0.139,0.144,0.217,0.335,0.216,0.535v3.614c0,0.199-0.078,0.391-0.216,0.535C39.031,13.336,38.841,13.417,38.642,13.416z M24.152,12.465h-3.34l3.159,3.232h3.34L24.152,12.465z M9.85,6H0v9.697h2.418v-3.232h7.431c1.747,0,3.16-1.447,3.16-3.232C13.008,7.448,11.59,6,9.848,6H9.85z M9.664,10.184H2.418V8.281h7.245c0.519,0.007,0.934,0.433,0.927,0.952C10.596,9.751,10.181,10.177,9.664,10.184L9.664,10.184z M23.785,6h-9.85v9.697h2.413v-3.232h7.436c1.742,0,3.16-1.447,3.16-3.232S25.526,6,23.785,6L23.785,6z M23.598,10.184h-7.25V8.281h7.25c0.51,0,0.927,0.426,0.927,0.952C24.531,9.751,24.116,10.177,23.598,10.184z M64.844,8.281h8.731V6h-9.103c-1.433,0-2.601,1.192-2.601,2.663v4.37c0,1.472,1.162,2.664,2.601,2.664h9.103v-2.28h-8.729c-0.416-0.005-0.75-0.345-0.746-0.761v-0.569h9.476V9.801H64.1v-0.76c0-0.417,0.338-0.76,0.746-0.76H64.844z M49.065,6v2.315l3.517-0.034v4.375c0,0.417-0.333,0.76-0.746,0.76h-6.312c-0.416-0.005-0.749-0.345-0.746-0.76v-0.569h-2.232v0.946c0,1.472,1.168,2.664,2.605,2.664h7.058c1.437,0,2.6-1.192,2.6-2.664V6H49.065z" style="fill: var(--color1, #000);"></path>
    </symbol>
    
    <symbol viewBox="98 4.999 25 12.074" id="minus99">
        <path d="M108.387,17.09&#10;&#9;&#9;c-0.584-0.017-1.167-0.049-1.748-0.099c-0.541-0.06-0.99-0.124-1.449-0.377v-1.474c0.467-0.111,0.987-0.195,1.428-0.211&#10;&#9;&#9;c0.476-0.023,2.076-0.027,2.5-0.025c0.783,0.031,1.068-0.258,1.096-0.699c0.016-0.254,0.018-0.51,0.004-0.764&#10;&#9;&#9;c-0.01-0.371-0.316-0.584-0.853-0.688c-0.701-0.109-2.623-0.414-3.46-0.738c-0.27-0.094-0.525-0.225-0.76-0.388&#10;&#9;&#9;c-0.504-0.383-0.908-0.911-0.873-2.15c0.156-1.51,0.256-2.24,0.834-3.135c0.42-0.587,1.133-1.291,2.699-1.344&#10;&#9;&#9;c0.264,0,1.562,0.022,1.663,0.033c2.632,0.184,3.483,2.086,3.495,3.278c0.018,0.328,0.087,4.5,0.09,5.141&#10;&#9;&#9;c0.002,0.189,0.037,1.113-0.223,1.751c-0.295,0.844-1.105,1.784-2.717,1.871C109.908,17.098,108.738,17.093,108.387,17.09&#10;&#9;&#9;L108.387,17.09z M110.204,10.91c0.004-0.947,0.021-2.195-0.027-2.609c-0.018-0.279-0.104-0.903-0.751-1.099&#10;&#9;&#9;c-0.14-0.042-1.156-0.079-1.295-0.05c-0.48,0.11-0.732,0.466-0.848,1.012c-0.069,0.374-0.131,0.868-0.096,1.272&#10;&#9;&#9;c0.011,0.431,0.242,0.738,0.535,0.816c0.202,0.054,1.117,0.215,1.365,0.27C109.471,10.607,109.854,10.692,110.204,10.91&#10;&#9;&#9;L110.204,10.91z M98,11.116c0.391-0.099,0.789-0.166,1.191-0.201c1.164-0.106,2.347-0.047,3.142,0.019&#10;&#9;&#9;c0.571,0.06,1.176,0.117,1.687,0.414v1.666c-0.479,0.119-0.969,0.191-1.461,0.213c-0.555,0.051-1.967,0.047-3.06-0.055&#10;&#9;&#9;c-0.465-0.057-0.915-0.072-1.499-0.37V11.116z M117.698,17.118c-0.583-0.017-1.167-0.05-1.748-0.099&#10;&#9;&#9;c-0.54-0.061-0.99-0.125-1.449-0.377v-1.474c0.467-0.11,0.987-0.194,1.429-0.21c0.475-0.025,2.076-0.027,2.5-0.025&#10;&#9;&#9;c0.783,0.03,1.067-0.258,1.096-0.701c0.02-0.256,0.012-0.508,0.002-0.762c-0.008-0.371-0.314-0.586-0.852-0.688&#10;&#9;&#9;c-0.701-0.11-2.623-0.413-3.46-0.737c-0.27-0.094-0.525-0.225-0.76-0.388c-0.504-0.384-0.908-0.911-0.872-2.15&#10;&#9;&#9;c0.156-1.51,0.256-2.241,0.833-3.136c0.42-0.586,1.133-1.29,2.7-1.343c0.263,0,1.561,0.022,1.662,0.033&#10;&#9;&#9;c2.633,0.184,3.484,2.086,3.496,3.277c0.018,0.329,0.086,4.501,0.09,5.143c0.001,0.189,0.037,1.112-0.225,1.75&#10;&#9;&#9;c-0.293,0.845-1.104,1.783-2.715,1.871C119.221,17.126,118.051,17.122,117.698,17.118z M119.516,10.938&#10;&#9;&#9;c0.004-0.947,0.021-2.195-0.027-2.609c-0.018-0.279-0.104-0.903-0.75-1.1c-0.141-0.041-1.156-0.078-1.295-0.05&#10;&#9;&#9;c-0.48,0.11-0.734,0.466-0.848,1.013c-0.07,0.373-0.132,0.868-0.096,1.271c0.01,0.432,0.242,0.739,0.534,0.817&#10;&#9;&#9;c0.202,0.054,1.118,0.215,1.366,0.27C118.782,10.634,119.166,10.72,119.516,10.938L119.516,10.938z" style="fill: var(--color1, #000);"></path>
    </symbol>
    
    <symbol viewBox="0 0 32 32" id="close">
        <path d="M15.293 16L8.575 9.282l.707-.707L16 15.293l6.718-6.718.707.707L16.707 16l6.718 6.718-.707.707L16 16.707l-6.718 6.718-.707-.707L15.293 16z" style="fill: var(--color1, currentColor);" fill="#000"></path>
    </symbol>
    
    <symbol viewBox="0 0 32 32" id="minus">
        <path style="fill: var(--color1, currentColor);" d="M11 16h10v1H11z"></path>
    </symbol>
    
    <symbol viewBox="0 0 32 32" id="plus">
        <path style="fill: var(--color1, currentColor);" d="M15.5 16v-4.5h1V16H21v1h-4.5v4.5h-1V17H11v-1h4.5z"></path>
    </symbol>
    
    <symbol viewBox="0 0 32 32" id="filter">
        <path fill="#000000" style="fill: var(--color1, currentColor);" d="M6 11h20v1H6v-1zm3 5h14v1H9v-1zm3 5h8v1h-8v-1z"></path>
    </symbol>
    
    <symbol viewBox="0 0 32 32" id="sort">
        <path fill="#000000" style="fill: var(--color1, currentColor);" d="M15.685 8.545a.32.32 0 0 1 .32-.32 4.174 4.174 0 0 1 4.17 4.168v7.697h2.874l-3.195 4.393-3.195-4.393h2.874v-7.697a3.532 3.532 0 0 0-3.527-3.527.32.32 0 0 1-.321-.32zm6.105 12.186h-3.872l1.936 2.662 1.936-2.662zm-6.426 3.207a.32.32 0 0 1-.32.32 4.174 4.174 0 0 1-4.17-4.168v-7.697H8L11.195 8l3.196 4.393h-2.875v7.697a3.532 3.532 0 0 0 3.528 3.527.32.32 0 0 1 .32.321zM9.26 11.752h3.871L11.195 9.09 9.26 11.752z"></path>
    </symbol>
    
    <symbol viewBox="0 0 32 32" id="view-1">
        <path d="M11 10h10v9H11zM11 21h10v1H11z" style="fill: var(--color1, currentColor);"></path>
    </symbol>
    
    <symbol viewBox="0 0 32 32" id="view-2">
        <path d="M8 13h6v6H8zM18 13h6v6h-6z" style="fill: var(--color1, currentColor);"></path>
    </symbol>
    
    <symbol viewBox="0 0 32 32" id="view-3">
        <path d="M3 13h6v6H3zM13 13h6v6h-6zM23 13h6v6h-6z" style="fill: var(--color1, currentColor);"></path>
    </symbol>
    
    <symbol viewBox="0 0 32 32" id="breadcrumb">
        <g fill="#000" stroke="#000" stroke-width=".2" transform="translate(11 6)">
        <path d="M.873 8.447a.32.32 0 0 1 .321.321 3.532 3.532 0 0 0 3.528 3.528h3.696V9.42l4.394 3.195-4.394 3.196v-2.875H4.722a4.174 4.174 0 0 1-4.17-4.169.32.32 0 0 1 .321-.32zm8.187 6.105l2.661-1.936-2.661-1.935v3.87z"> <rect width="1" height="8" x=".553" y=".912" rx=".325"> </rect></path></g>
    </symbol>
    
    <symbol viewBox="0 0 32 32" id="star">
        <path d="M16 20.438L9.534 24.9l2.245-7.528-6.24-4.77 7.852-.191L16 5l2.609 7.41 7.853.19-6.241 4.771 2.245 7.528z" style="fill: var(--color1, currentColor);" fill="#ff0"></path>
    </symbol>
    
    <symbol viewBox="0 0 32 32" id="percent-100">
        <path d="M1.053 11.333L1.4 9.6C1.64 8.4 2.293 8 3.213 8c.907 0 1.414.533 1.414 1.213 0 .134-.027.307-.054.427l-.346 1.733c-.227 1.174-.827 1.6-1.814 1.6C1.507 12.973 1 12.44 1 11.76c0-.12.027-.307.053-.427zm1.067-.013c-.027.133-.053.28-.053.347 0 .24.133.413.453.413.307 0 .533-.187.627-.653l.36-1.774c.026-.12.053-.28.053-.346 0-.24-.133-.414-.453-.414-.307 0-.534.187-.627.654l-.36 1.773zm2.867 4.747l.346-1.734c.24-1.2.894-1.6 1.814-1.6.906 0 1.413.534 1.413 1.214 0 .133-.027.306-.053.426l-.347 1.734c-.227 1.173-.827 1.6-1.813 1.6-.907 0-1.414-.534-1.414-1.214 0-.12.027-.306.054-.426zm1.066-.014c-.026.134-.053.28-.053.347 0 .24.133.413.453.413.307 0 .534-.186.627-.653l.36-1.773c.027-.12.053-.28.053-.347 0-.24-.133-.413-.453-.413-.307 0-.533.186-.627.653l-.36 1.773zM1.747 17.6l5.04-9.493h1.04L2.773 17.6H1.747zM9.83 22.667l2.34-11.78-2.36 1.72.5-2.46 2.36-1.72h2l-2.84 14.24h-2zm6.007-11.2c.2-1.08.54-1.88 1.22-2.46.6-.5 1.3-.74 2.24-.74.94 0 1.64.3 2 .72.48.54.6 1.02.6 1.68 0 .28-.04.62-.12 1l-1.58 7.96c-.22 1.08-.56 1.88-1.24 2.46-.58.5-1.3.74-2.22.74-1.02 0-1.66-.32-2.02-.72-.44-.46-.6-1.02-.6-1.68 0-.28.04-.62.12-1l1.6-7.96zm2-.08l-1.64 8.22c-.04.22-.06.44-.06.6 0 .52.32.84.82.84.5 0 1.02-.32 1.22-1.34l1.64-8.22c.04-.22.06-.44.06-.6 0-.52-.32-.84-.82-.84-.5 0-1.02.32-1.22 1.34zm5.58.08c.2-1.08.54-1.88 1.22-2.46.6-.5 1.3-.74 2.24-.74.94 0 1.64.3 2 .72.48.54.6 1.02.6 1.68 0 .28-.04.62-.12 1l-1.58 7.96c-.22 1.08-.56 1.88-1.24 2.46-.58.5-1.3.74-2.22.74-1.02 0-1.66-.32-2.02-.72-.44-.46-.6-1.02-.6-1.68 0-.28.04-.62.12-1l1.6-7.96zm2-.08l-1.64 8.22c-.04.22-.06.44-.06.6 0 .52.32.84.82.84.5 0 1.02-.32 1.22-1.34l1.64-8.22c.04-.22.06-.44.06-.6 0-.52-.32-.84-.82-.84-.5 0-1.02.32-1.22 1.34z" style="fill: var(--color1, currentColor);"></path>
    </symbol>
    
    <symbol viewBox="0 0 32 32" id="cargo">
        <path d="M18.058 15.829L25 11.822v9.022l-7.81 4.509V16.33l.868-.502zm6.432-5.196l-8.022 4.634-8.004-4.634L16.486 6l8.004 4.633zM8 11.87l7.753 4.477v8.958L8 20.828V11.87z" style="fill: var(--color1, currentColor);"></path>
    </symbol>
    
    <symbol viewBox="0 0 32 32" id="delivery">
        <path xmlns="http://www.w3.org/2000/svg" d="M16,7,8,11.7V25H24V11.7ZM13,23H11V14h2Zm4,0H15V14h2Zm4,0H19V14h2Z"/>
    </symbol>
    
    <symbol viewBox="0 0 32 32" id="payment">
        <defs><style>.cls-1{fill-rule:evenodd;}</style></defs>
        <path class="cls-1" d="M16,7a9,9,0,1,0,9,9A9,9,0,0,0,16,7ZM13,21a2,2,0,0,1-2-2V13a2,2,0,0,1,2-2Zm4,0H15V11h2Zm4-2a2,2,0,0,1-2,2V11a2,2,0,0,1,2,2Z"/>
    </symbol>
    
    <svg xmlns="http://www.w3.org/2000/svg" id="Layer_1" data-name="Layer 1" width="32" height="32" viewBox="0 0 32 32"><defs><style>.cls-1{fill-rule:evenodd;}</style></defs><path class="cls-1" d="M16,7a9,9,0,1,0,9,9A9,9,0,0,0,16,7ZM13,21a2,2,0,0,1-2-2V13a2,2,0,0,1,2-2Zm4,0H15V11h2Zm4-2a2,2,0,0,1-2,2V11a2,2,0,0,1,2,2Z"/></svg>
    
    <symbol viewBox="0 0 32 32" id="remove">
        <rect rx="1" fill="#D8D8D8" y="9" x="9" height="14" width="14" style="fill: var(--color1, #d8d8d8);"></rect>
        <path d="M16 15.293l3.182-3.182.707.707L16.707 16l3.182 3.182-.707.707L16 16.707l-3.182 3.182-.707-.707L15.293 16l-3.182-3.182.707-.707L16 15.293z" fill="#878787" style="fill: var(--color2, #878787);"></path>
    </symbol>
    
    <symbol viewBox="0 0 70 70" id="installment">
        <path d="M16 22h38v25.636H16z" stroke-width="2" stroke="#000" fill="none"></path>
        <path d="M16 27h38v5H16z" fill="#000"></path>
    </symbol>
    
    <symbol viewBox="0 0 70 70" id="secure-shopping">
        <g transform="translate(19 13)">
        <path d="M1 17h30v25.636H1z" stroke-width="2" stroke="#000" fill="none"></path>
        <path d="M8.727 17.851V6.876C8.727 3.079 11.983 0 16 0c4.017 0 7.273 3.079 7.273 6.876v10.975" stroke-width="2" stroke="#000" fill="none"></path> <circle r="2.909" cy="27.636" cx="16" fill="#fff"></circle>
        <path d="M14.545 27.636h2.909v7.273h-2.909z" fill="#000"></path> </g>
    </symbol>
    
    <symbol viewBox="0 0 70 70" id="fast-cargo">
        <path d="M45.604 49.76a.777.777 0 0 1-.185.047c-5.041 1.265-10.607-.07-14.542-4.005a15.303 15.303 0 0 1-1.685-2.002h-8.75a.779.779 0 0 1-.78-.78c0-.432.35-.782.78-.782h7.784a15.348 15.348 0 0 1-1.344-11.017.772.772 0 0 1 .044-.17c.133-.502.293-.999.478-1.488h-10.91a.779.779 0 0 1-.78-.781c0-.432.35-.782.781-.782h11.606c.452-.88.996-1.724 1.63-2.52l.014-.015a15.213 15.213 0 0 1 10.86-5.696.806.806 0 0 1 .197-.013c2.294-.13 4.612.252 6.764 1.148a.781.781 0 0 1 .138.057 15.198 15.198 0 0 1 4.778 3.237 15.209 15.209 0 0 1 2.994 4.242 15.323 15.323 0 0 1 1.465 7.035.782.782 0 0 1-.007.205 15.218 15.218 0 0 1-5.782 11.305l-.016.013a15.17 15.17 0 0 1-5.532 2.762zm-4.801-4.758l4.65 3.18a13.609 13.609 0 0 0 4.428-2.19l.076-5.724-.792-.5-3.042-1.927-4.261 2.171-1.06 4.99zm-4.135-10.184l.724-1.422 1.447-2.84-2.43-3.837-5.68.025a13.615 13.615 0 0 0-2.222 4.452l3.173 4.68 4.988-1.058zm2.386-13.274a13.634 13.634 0 0 0-6.941 3.631l4.325-.018 2.616-3.613zm-.906 13.81l3.158 3.157 3.978-2.027-.698-4.41-4.41-.7-2.028 3.98zm13.313 9.257a13.639 13.639 0 0 0 3.73-7.294l-3.671 2.907-.059 4.387zm3.925-9.44c.023-1.918-.351-3.84-1.125-5.63l-5.147-.85-2.991 2.99.759 4.79 2.356 1.493 1.455.922 4.693-3.715zm-2.028-7.363a13.69 13.69 0 0 0-1.98-2.505 13.678 13.678 0 0 0-2.892-2.21l.981 4.073 3.89.642zm-6.687-5.58a13.775 13.775 0 0 0-5.513-.925l-3.377 4.663 2.427 3.832 1.411.223 3.379.536 2.965-2.965-1.292-5.364zM28.072 33.339a13.77 13.77 0 0 0 1.295 7.703l1.114-4.15-2.409-3.553zm2.41 9.58a13.702 13.702 0 0 0 3.28 3.28l5.503-1.478 1.058-4.983-3.381-3.381-4.984 1.057-1.476 5.504zm5.156 4.393a13.768 13.768 0 0 0 7.675 1.299l-3.527-2.412-4.148 1.113zM22.713 34.22a.782.782 0 0 1 0 1.562H7.821a.779.779 0 0 1-.782-.78c0-.432.35-.782.782-.782h14.892zm-5.107 8.248a.787.787 0 0 1 .229.552.786.786 0 0 1-.23.553.786.786 0 0 1-1.104 0 .783.783 0 0 1 .553-1.334c.205 0 .407.083.552.229z" stroke-width=".2" stroke="#000" fill="#000"></path>
    </symbol>
    
    <symbol viewBox="0 0 70 70" id="success">
        <path fill="#000" style="fill: var(--color1, currentColor);" d="M30.672 38.036l10.606-10.607 4.243 4.243L30.67 46.52l-9.192-9.193 4.243-4.242z"></path>
    </symbol>
    
    <symbol viewBox="0 0 70 70" id="error">
        <path d="M35 31.257l7.071-7.07 4.243 4.242-7.071 7.071 7.07 7.071-4.242 4.243L35 39.743l-7.071 7.07-4.243-4.242 7.071-7.071-7.07-7.071 4.242-4.243L35 31.257z" style="fill: var(--color1, currentColor);" fill="#000"></path>
    </symbol>
    
    <symbol viewBox="0 0 32 32" id="logout">
        <path d="M13 15.2h7.2v-2.4L25 16l-4.8 3.2v-2.4H13zM10.558 21h2v2h-4V9h4v2h-2z" fill="#878787" style="fill: var(--color1, currentColor);"></path>
    </symbol>

    
    <symbol id="cart-done" width="32" height="32" viewBox="0 0 32 32">
        <path d="M20,12V10a4,4,0,0,0-8,0v2H8V26H24V12Zm-7-2a3,3,0,0,1,6,0v2H13Zm1.5,12.7-3.2-3.3L12.7,18l1.8,1.8,4.6-4.5,1.4,1.4Z"/>
    </symbol>
    
    <symbol viewBox="0 0 32 32" id="heart">
        <path d="M24.967 12.99c-.263-2.892-2.31-4.99-4.87-4.99-1.707 0-3.27.919-4.148 2.39C15.077 8.9 13.579 8 11.9 8c-2.56 0-4.608 2.098-4.87 4.99-.02.127-.106.8.153 1.895.373 1.581 1.235 3.02 2.492 4.158l6.27 5.69 6.377-5.69c1.257-1.139 2.119-2.576 2.492-4.158.259-1.096.173-1.768.153-1.895z" style="fill: var(--color1, currentColor);" fill="#FFF"></path>
    </symbol>
    
    <symbol viewBox="0 0 32 32" id="ticket">
        <path d="M5 20v-8a3 3 0 0 0 3-3h16a3 3 0 0 0 3 3v8a3 3 0 0 0-3 3H8a3 3 0 0 0-3-3z" fill="#FFF" style="fill: var(--color1, currentColor);"></path>
        <path d="M11 11h2v10h-2V11zm4 0h2v10h-2V11zm4 0h2v10h-2V11z" fill="#000" style="fill: var(--color2, #000);"></path>
    </symbol>
    
    <symbol id="secure" width="32" height="32" viewBox="0 0 32 32">
        <path d="M22.3,14V11.9a6.4,6.4,0,0,0-6.4-6.4,6.4,6.4,0,0,0-6.4,6.4V14H7V27H25V14ZM10.5,11.9a5.4,5.4,0,0,1,10.8,0V14H10.5ZM17,20.7V24H15V20.7A1.9,1.9,0,0,1,14,19a2,2,0,0,1,4,0A1.9,1.9,0,0,1,17,20.7Z"/>
    </symbol>
    
    <symbol viewBox="0 0 86 86" id="search0">
        <path fill="#000" d="M8 14h19.252l3.474 4.944H71V72.02H8z"></path>
        <path fill="#515151" d="M15.74 22h63L71 72H8z"></path>
        <path fill="#FFF" d="M25.165 33h8.55L29.55 60.255H21zM57.165 33h8.55L61.55 60.255H53zM41.165 33h8.55L45.55 60.255H37z"></path>
    </symbol>
    
    <symbol viewBox="0 0 86 86" id="cart0">
        <path fill="#000" d="M21.06 21H65l4 7-26.01 16L18 28z"></path>
        <path fill="#161616" d="M21 21h44v34H21z"></path>
        <path fill="#515151" d="M18 28h51v36H18z"></path>
        <path fill="none" stroke="#000" stroke-width="3" d="M34 32v-9.5a9.5 9.5 0 0 1 19 0V32"></path>
        <path fill="#FFF" d="M26 36h7v21h-7V36zm14 0h7v21h-7V36zm14 0h7v21h-7V36z"></path>
    </symbol>
    
    <symbol viewBox="0 0 86 86" id="address0">
        <path fill="#000" d="M22 33.545L43 21l21 12.545V68.35H22z"></path>
        <path fill="#FFF" d="M29.875 39.475h5.25V63.1h-5.25V39.475zm10.5 0h5.25V63.1h-5.25V39.475zm10.5 0h5.25V63.1h-5.25V39.475z"></path>
    </symbol>
    
    <symbol viewBox="0 0 86 86" id="favorite0">
        <path fill="#000" d="M17 17h53v58H17z"></path>
        <path fill="#C5242B" d="M69.553 11c-1.617 0-3.129.74-4.126 1.977A5.302 5.302 0 0 0 61.301 11 5.307 5.307 0 0 0 56 16.301c0 2.297 1.372 4.955 4.077 7.903 2.086 2.272 4.354 4.03 5 4.516l.35.263.35-.263c.646-.485 2.915-2.244 5-4.516 2.706-2.947 4.078-5.606 4.078-7.903A5.307 5.307 0 0 0 69.553 11z"></path>
        <path fill="#FFF" d="M26 29h7v34h-7V29zm14 0h7v34h-7V29zm14 0h7v34h-7V29z"></path>
    </symbol>
    
    <symbol viewBox="0 0 86 86" id="coupon0">
        <path fill="#000" d="M12 54V31.455A8.455 8.455 0 0 0 20.455 23h45.09A8.455 8.455 0 0 0 74 31.455V54a8.455 8.455 0 0 0-8.455 8.455h-45.09A8.455 8.455 0 0 0 12 54z"></path>
        <path fill="#FFF" d="M28.91 28.636h5.635v28.182H28.91V28.636zm11.272 0h5.636v28.182h-5.636V28.636zm11.273 0h5.636v28.182h-5.636V28.636z"></path>
    </symbol>
    
    <symbol viewBox="0 0 32 32" id="information">
        <circle cx="16" cy="16" r="10" fill="#000" style="fill: var(--color1, currentColor);"></circle>
        <path fill="#FFF" style="fill: var(--color2, #fff);" d="M16.39 14.242v6.128h-1.07v-6.128h1.07zm-.546-2.942a.74.74 0 0 1 .547.21c.14.139.209.313.209.523a.69.69 0 0 1-.21.517.75.75 0 0 1-.546.203.736.736 0 0 1-.535-.203.69.69 0 0 1-.209-.517c0-.21.07-.384.21-.524.139-.14.317-.209.534-.209z"></path>
    </symbol>
    
    <symbol viewBox="0 0 30 30" id="location">
        <path d="M21 15h-11" stroke="#444" stroke-width="1" fill="none"></path>
        <path d="M18 12l3 3-3 3M13 18l-3-3 3-3" stroke="#444" stroke-width="1" fill="none"></path>
    </symbol>
    
    <symbol id="gift-card" width="32" height="32" viewBox="0 0 32 32">
        <defs><style>.cls-1{fill-rule:evenodd;}</style></defs><path class="cls-1" d="M5,9V23H27V9Zm8,12H11V11h2Zm4,0H15V11h2Zm4,0H19V11h2Z"/>
    </symbol>
    
    <symbol viewBox="0 0 36 36" id="contact">
        <path style="fill: var(--color1, currentColor);" fill="#fff" d="M33.706 16.136v-.11C33.706 7.19 26.666 0 18.012 0S2.317 7.19 2.317 16.027v.103C.977 16.535 0 17.8 0 19.3v4.361c0 1.826 1.45 3.306 3.237 3.306v.127c0 .335.217.616.515.712 2.053 3.403 5.27 5.974 9.105 7.161l3.214.995a.88.88 0 0 0 .26.039.894.894 0 0 0 .852-.646.914.914 0 0 0-.595-1.136l-3.213-.995c-3.152-.976-5.834-3-7.665-5.687a.754.754 0 0 0 .145-.444V15.866c0-.414-.33-.75-.735-.75h-.988C4.594 7.705 10.64 1.82 18.012 1.82c7.37 0 13.417 5.885 13.88 13.294H30.88a.743.743 0 0 0-.735.751v11.226c0 .415.33.75.735.75h1.148a.743.743 0 0 0 .735-.75v-.126c1.788 0 3.237-1.48 3.237-3.306v-4.361c0-1.49-.966-2.75-2.294-3.163z"></path>
    </symbol>
    
    <symbol viewBox="0 0 17 17" id="emblem0">
        <path d="M15.686 0l1.142 1.143L13.52 4.45a6.464 6.464 0 0 1-9.07 9.07l-3.307 3.307L0 15.686l3.308-3.308a6.464 6.464 0 0 1 9.07-9.07L15.686 0zm-3.32 5.606l-6.76 6.76a4.848 4.848 0 0 0 6.76-6.76zm-3.952-2.04a4.848 4.848 0 0 0-3.951 7.657l6.76-6.76a4.826 4.826 0 0 0-2.809-.897z" fill="#878787" style="fill: var(--color1, currentColor);"></path>
    </symbol>
    
    <symbol viewBox="0 0 32 32" id="gift-card2">
        <path fill="#fff" style="fill: var(--color1, currentColor);" d="M8.802 16.769H7v-5.294C7 10.661 7.638 10 8.426 10h3.26v4.78a1.425 1.425 0 0 0-.07-.08c-.87-.908-2.126-1.08-2.805-.384-.572.587-.551 1.604-.009 2.453zm1.343 4.21l-1.48-1.624.697-.652H7v1.822C7 21.34 7.638 22 8.426 22h3.26v-2.525l-1.541 1.504zm3.577-6.279c.87-.908 2.125-1.08 2.804-.384.572.587.552 1.604.01 2.452H24v-5.293C24 10.661 23.36 10 22.574 10h-8.923v4.78c.023-.028.046-.054.07-.08zm2.95 4.748l-1.57 1.53-1.45-1.592V22h8.922c.788 0 1.426-.66 1.426-1.475v-1.822h-8.032l.704.745zm-2.52-3.955c-.445.464-.532 1.856-.532 1.856s1.344-.102 1.79-.567c.445-.465.524-1.13.177-1.486-.347-.356-.99-.268-1.435.197zm-4.402-.197c-.347.356-.268 1.022.177 1.486.446.465 1.79.567 1.79.567s-.087-1.392-.532-1.856c-.445-.465-1.088-.553-1.435-.197z"></path>
    </symbol>
    
    <symbol viewBox="0 0 14 14" id="checkbox">
        <rect style="stroke: var(--color1, currentColor);" width="13" height="13" x=".5" y=".5" rx="1" stroke-width="1" stroke="#000" fill="none"></rect>
    </symbol>
    
    <symbol viewBox="0 0 14 14" id="checkbox-active">
        <rect style="stroke: var(--color1, currentColor);" width="13" height="13" x=".5" y=".5" rx="1" stroke-width="1" stroke="#000" fill="none"></rect>
        <path style="stroke: var(--color1, currentColor); display: var(--check, block);" d="M3 6.681l2.55 2.55L10.782 4" stroke-width="2" stroke="#000" fill="none"></path>
    </symbol>
    
    <symbol viewBox="0 0 18 18" id="radio-active">
        <rect style="stroke: var(--color1, currentColor);" rx="8.5" y=".5" x=".5" height="17" width="17" stroke-width="1" stroke="#000" fill="none"></rect>
        <path style="stroke: var(--color1, currentColor); display: var(--check, block);" d="M5 8.681l2.55 2.55L12.782 6" stroke-width="2" stroke="#000" fill="none"></path>
    </symbol>
    
    <symbol viewBox="0 0 32 32" id="select">
        <path style="fill: var(--color1, #000);" d="M19.721 14.060l-3.39 4.661-3.39-4.662h6.78z"></path>
    </symbol>
    
    <symbol viewBox="0 0 32 32" id="select-active">
        <path d="M19.721 17.94l-3.39-4.661-3.39 4.662h6.78z" style="fill: var(--color1, currentColor);"></path>
    </symbol>
    
    <symbol viewBox="0 0 5 7" id="right-arrow">
        <g id="UI" stroke="none" stroke-width="1" fill="none" fill-rule="evenodd">
            <g id="M1.2.1-Homepage-Menu" transform="translate(-262.000000, -71.000000)" fill="#000000">
                <g id="Group-2">
                    <g id="icons/dropdown" transform="translate(264.000000, 75.000000) rotate(-90.000000) translate(-264.000000, -75.000000) translate(248.000000, 59.000000)">
                        <polygon id="Path" transform="translate(16.330854, 16.390129) rotate(-90.000000) translate(-16.330854, -16.390129) " points="18.661708 19.7802577 14 16.3901289 18.661708 13 18.661708 19.7802577"/>
                    </g>
                </g>
            </g>
        </g>
    </symbol>
    
    <symbol viewBox="0 0 32 32" id="check-fill">
        <path fill="#0091ff" style="fill: var(--color1, #0091ff);" d="M16 4c6.627 0 12 5.373 12 12s-5.373 12-12 12v0c-6.627 0-12-5.373-12-12s5.373-12 12-12v0zM19.963 11.807l-6.131 6.507-1.997-2.049c-0.158-0.171-0.383-0.278-0.634-0.278s-0.476 0.107-0.633 0.278l-0.001 0.001c-0.162 0.176-0.262 0.412-0.262 0.671s0.1 0.495 0.263 0.672l-0.001-0.001 2.537 2.637c0.182 0.189 0.437 0.306 0.72 0.306 0.287 0 0.545-0.121 0.727-0.314l0-0 6.677-7.087c0.163-0.176 0.262-0.412 0.262-0.671s-0.1-0.495-0.263-0.672l0.001 0.001c-0.158-0.171-0.383-0.278-0.633-0.278s-0.475 0.107-0.633 0.277l-0.001 0.001z"></path>
    </symbol>
    
    <symbol viewBox="0 0 32 32" id="eyes">
        <path d="M26.408 15.131c0.173 0.267 0.259 0.555 0.259 0.869s-0.087 0.604-0.259 0.869c-1.069 1.761-2.533 3.183-4.275 4.172l-0.058 0.030c-1.853 1.063-3.877 1.595-6.075 1.595s-4.223-0.532-6.075-1.595c-1.8-1.020-3.264-2.442-4.304-4.151l-0.029-0.052c-0.173-0.267-0.259-0.555-0.259-0.869s0.087-0.604 0.259-0.869c1.069-1.761 2.533-3.183 4.275-4.172l0.058-0.030c1.853-1.063 3.877-1.595 6.075-1.595s4.223 0.532 6.075 1.595c1.8 1.020 3.264 2.442 4.304 4.151l0.029 0.052zM16 20.928c1.876 0 3.6-0.447 5.167-1.341 1.541-0.874 2.798-2.086 3.697-3.543l0.025-0.044c-1.162-1.855-2.834-3.295-4.821-4.141l-0.069-0.026c0.692 0.893 1.037 1.896 1.037 3.007 0 0.893-0.229 1.716-0.685 2.464-0.457 0.746-1.075 1.351-1.809 1.78l-0.024 0.013c-0.709 0.422-1.564 0.671-2.477 0.671-0.015 0-0.030-0-0.044-0l0.002 0c-0.013 0-0.027 0-0.042 0-0.913 0-1.767-0.249-2.499-0.683l0.023 0.012c-0.758-0.442-1.376-1.048-1.821-1.771l-0.013-0.022c-0.43-0.691-0.685-1.529-0.685-2.428 0-0.013 0-0.026 0-0.038v0.002c0-0.821 0.197-1.593 0.593-2.319 0 0.556 0.203 1.033 0.611 1.432s0.895 0.597 1.463 0.597c0.568 0 1.056-0.2 1.463-0.597 0.408-0.4 0.612-0.876 0.612-1.432 0-0.555-0.197-1.027-0.593-1.413-1.731 0.144-3.308 0.692-4.673 1.548l0.043-0.025c-1.385 0.853-2.518 1.985-3.346 3.326l-0.025 0.043c0.925 1.5 2.181 2.713 3.672 3.56l0.050 0.026c1.568 0.893 3.291 1.341 5.167 1.341z"></path>
    </symbol>
    
    <symbol viewBox="0 0 60 60" id="play"><title/><desc/><defs/><g fill="none" fill-rule="evenodd" id="People" stroke="none" stroke-width="1"><g fill="#ffffff" id="Icon-61"><path d="M40,30 C40,30.34 39.827,30.657 39.541,30.841 L29.531,37.276 C29.065,37.574 28.448,37.44 28.149,36.977 C27.851,36.512 27.985,35.894 28.449,35.595 L37.151,30 L26,22.832 L26,39 C26,39.553 25.552,40 25,40 C24.448,40 24,39.553 24,39 L24,21 C24,20.634 24.2,20.298 24.521,20.122 C24.841,19.947 25.232,19.959 25.541,20.159 L39.541,29.159 C39.827,29.343 40,29.66 40,30 M30,58 C14.561,58 2,45.439 2,30 C2,14.561 14.561,2 30,2 C45.439,2 58,14.561 58,30 C58,45.439 45.439,58 30,58 M30,0 C13.458,0 0,13.458 0,30 C0,46.542 13.458,60 30,60 C46.542,60 60,46.542 60,30 C60,13.458 46.542,0 30,0" id="control-play"/></g></g>
    </symbol>
    
    <symbol viewBox="0 0 60 60" id="play-small"><title/><desc/><defs/><g fill="none" fill-rule="evenodd" id="People" stroke="none" stroke-width="1"><g fill="#ffffff" id="Icon-61"><path d="M40,30 C40,30.34 39.827,30.657 39.541,30.841 L29.531,37.276 C29.065,37.574 28.448,37.44 28.149,36.977 C27.851,36.512 27.985,35.894 28.449,35.595 L37.151,30 L26,22.832 L26,39 C26,39.553 25.552,40 25,40 C24.448,40 24,39.553 24,39 L24,21 C24,20.634 24.2,20.298 24.521,20.122 C24.841,19.947 25.232,19.959 25.541,20.159 L39.541,29.159 C39.827,29.343 40,29.66 40,30 M30,58 C14.561,58 2,45.439 2,30 C2,14.561 14.561,2 30,2 C45.439,2 58,14.561 58,30 C58,45.439 45.439,58 30,58 M30,0 C13.458,0 0,13.458 0,30 C0,46.542 13.458,60 30,60 C46.542,60 60,46.542 60,30 C60,13.458 46.542,0 30,0" id="control-play"/></g></g>
    </symbol>
    
    <symbol viewBox="0 0 60 60" id="sound"><title/><desc/><defs/><g fill="none" fill-rule="evenodd" id="People" stroke="none" stroke-width="1"><g fill="#ffffff" id="Icon-69"><path d="M37.6064,19.3936 C40.4394,22.2266 42.0004,25.9936 42.0004,29.9996 C42.0004,34.0066 40.4394,37.7736 37.6064,40.6066 C37.4114,40.8016 37.1554,40.8996 36.8994,40.8996 C36.6434,40.8996 36.3874,40.8016 36.1924,40.6066 C35.8014,40.2156 35.8014,39.5826 36.1924,39.1926 C38.6474,36.7376 40.0004,33.4726 40.0004,29.9996 C40.0004,26.5276 38.6474,23.2626 36.1924,20.8076 C35.8014,20.4166 35.8014,19.7846 36.1924,19.3936 C36.5834,19.0026 37.2154,19.0026 37.6064,19.3936 M36.0004,29.9996 C36.0004,32.4046 35.0644,34.6646 33.3644,36.3636 C33.1694,36.5586 32.9134,36.6566 32.6574,36.6566 C32.4014,36.6566 32.1454,36.5586 31.9504,36.3636 C31.5594,35.9726 31.5594,35.3396 31.9504,34.9496 C33.2724,33.6266 34.0004,31.8696 34.0004,29.9996 C34.0004,28.1306 33.2724,26.3726 31.9504,25.0506 C31.5594,24.6606 31.5594,24.0276 31.9504,23.6366 C32.3404,23.2466 32.9734,23.2466 33.3644,23.6366 C35.0644,25.3356 36.0004,27.5956 36.0004,29.9996 M30.0004,20.9996 L30.0004,38.9996 C30.0004,39.3696 29.7964,39.7076 29.4714,39.8816 C29.3244,39.9606 29.1624,39.9996 29.0004,39.9996 C28.8054,39.9996 28.6124,39.9436 28.4454,39.8316 L22.4454,35.8316 C21.9854,35.5256 21.8614,34.9056 22.1684,34.4456 C22.4724,33.9866 23.0924,33.8626 23.5544,34.1676 L28.0004,37.1316 L28.0004,22.8686 L23.5544,25.8316 C23.3904,25.9416 23.1974,25.9996 23.0004,25.9996 L20.0004,25.9996 L20.0004,34.9996 C20.0004,35.5526 19.5524,35.9996 19.0004,35.9996 C18.4474,35.9996 18.0004,35.5526 18.0004,34.9996 L18.0004,24.9996 C18.0004,24.4476 18.4474,23.9996 19.0004,23.9996 L22.6974,23.9996 L28.4454,20.1676 C28.7514,19.9636 29.1474,19.9446 29.4714,20.1186 C29.7964,20.2916 30.0004,20.6306 30.0004,20.9996 M30.0004,57.9996 C14.5604,57.9996 2.0004,45.4396 2.0004,29.9996 C2.0004,14.5606 14.5604,1.9996 30.0004,1.9996 C45.4394,1.9996 58.0004,14.5606 58.0004,29.9996 C58.0004,45.4396 45.4394,57.9996 30.0004,57.9996 M30.0004,-0.0004 C13.4584,-0.0004 0.0004,13.4576 0.0004,29.9996 C0.0004,46.5416 13.4584,59.9996 30.0004,59.9996 C46.5424,59.9996 60.0004,46.5416 60.0004,29.9996 C60.0004,13.4576 46.5424,-0.0004 30.0004,-0.0004" id="control-volume-yes"/></g></g>
    </symbol>
    
    <symbol viewBox="0 0 60 60" id="sound-muted"><title/><desc/><defs/><g fill="none" fill-rule="evenodd" id="People" stroke="none" stroke-width="1"><g fill="#ffffff" id="Icon-69"><path d="M37.6064,19.3936 C40.4394,22.2266 42.0004,25.9936 42.0004,29.9996 C42.0004,34.0066 40.4394,37.7736 37.6064,40.6066 C37.4114,40.8016 37.1554,40.8996 36.8994,40.8996 C36.6434,40.8996 36.3874,40.8016 36.1924,40.6066 C35.8014,40.2156 35.8014,39.5826 36.1924,39.1926 C38.6474,36.7376 40.0004,33.4726 40.0004,29.9996 C40.0004,26.5276 38.6474,23.2626 36.1924,20.8076 C35.8014,20.4166 35.8014,19.7846 36.1924,19.3936 C36.5834,19.0026 37.2154,19.0026 37.6064,19.3936 M36.0004,29.9996 C36.0004,32.4046 35.0644,34.6646 33.3644,36.3636 C33.1694,36.5586 32.9134,36.6566 32.6574,36.6566 C32.4014,36.6566 32.1454,36.5586 31.9504,36.3636 C31.5594,35.9726 31.5594,35.3396 31.9504,34.9496 C33.2724,33.6266 34.0004,31.8696 34.0004,29.9996 C34.0004,28.1306 33.2724,26.3726 31.9504,25.0506 C31.5594,24.6606 31.5594,24.0276 31.9504,23.6366 C32.3404,23.2466 32.9734,23.2466 33.3644,23.6366 C35.0644,25.3356 36.0004,27.5956 36.0004,29.9996 M30.0004,20.9996 L30.0004,38.9996 C30.0004,39.3696 29.7964,39.7076 29.4714,39.8816 C29.3244,39.9606 29.1624,39.9996 29.0004,39.9996 C28.8054,39.9996 28.6124,39.9436 28.4454,39.8316 L22.4454,35.8316 C21.9854,35.5256 21.8614,34.9056 22.1684,34.4456 C22.4724,33.9866 23.0924,33.8626 23.5544,34.1676 L28.0004,37.1316 L28.0004,22.8686 L23.5544,25.8316 C23.3904,25.9416 23.1974,25.9996 23.0004,25.9996 L20.0004,25.9996 L20.0004,34.9996 C20.0004,35.5526 19.5524,35.9996 19.0004,35.9996 C18.4474,35.9996 18.0004,35.5526 18.0004,34.9996 L18.0004,24.9996 C18.0004,24.4476 18.4474,23.9996 19.0004,23.9996 L22.6974,23.9996 L28.4454,20.1676 C28.7514,19.9636 29.1474,19.9446 29.4714,20.1186 C29.7964,20.2916 30.0004,20.6306 30.0004,20.9996 M30.0004,57.9996 C14.5604,57.9996 2.0004,45.4396 2.0004,29.9996 C2.0004,14.5606 14.5604,1.9996 30.0004,1.9996 C45.4394,1.9996 58.0004,14.5606 58.0004,29.9996 C58.0004,45.4396 45.4394,57.9996 30.0004,57.9996 M30.0004,-0.0004 C13.4584,-0.0004 0.0004,13.4576 0.0004,29.9996 C0.0004,46.5416 13.4584,59.9996 30.0004,59.9996 C46.5424,59.9996 60.0004,46.5416 60.0004,29.9996 C60.0004,13.4576 46.5424,-0.0004 30.0004,-0.0004" id="control-volume-yes"/></g></g>
    </symbol>
    
    <symbol viewBox="0 0 60 60" id="pause"><title/><desc/><defs/><g fill="none" fill-rule="evenodd" id="People" stroke="none" stroke-width="1"><g fill="#ffffff" id="Icon-63"><path d="M40,21 L40,39 C40,39.553 39.553,40 39,40 C38.447,40 38,39.553 38,39 L38,22 L22,22 L22,38 L35,38 C35.553,38 36,38.447 36,39 C36,39.553 35.553,40 35,40 L21,40 C20.448,40 20,39.553 20,39 L20,21 C20,20.447 20.448,20 21,20 L39,20 C39.553,20 40,20.447 40,21 M30,58 C14.561,58 2,45.439 2,30 C2,14.561 14.561,2 30,2 C45.439,2 58,14.561 58,30 C58,45.439 45.439,58 30,58 M30,0 C13.458,0 0,13.458 0,30 C0,46.542 13.458,60 30,60 C46.542,60 60,46.542 60,30 C60,13.458 46.542,0 30,0" id="control-stop"/></g></g>
    </symbol>
    
    <symbol viewBox="0 0 32 32" id="eagle">
        <path d="M30.9,9.5a4.4,4.4,0,0,0-1.5-1.2,14,14,0,0,0-2.8-.6,7.6,7.6,0,0,1,2.1.3,3.7,3.7,0,0,0,1.8.2,2.8,2.8,0,0,0-1.1-.8,9.2,9.2,0,0,0-2.8-.5A9.7,9.7,0,0,1,29,7c.9.1,1,0,.4-.6s-3.8-.3-3.8-.3A22.6,22.6,0,0,0,29.3,5l-1.5-.2c-.7,0-3.6.6-3.1.4s2.6-1,2.3-1.1a7.1,7.1,0,0,0-2.9.5l-2.2,1H20.7a6.2,6.2,0,0,0-1.4,1.4c-.5.7-.5,1-.4,1.2a9.2,9.2,0,0,1-.5,3.7,3.6,3.6,0,0,1-1.3,2.3c-.1.2-.4.2-.6,0l-.5-.7a60.2,60.2,0,0,1-5.6-3,25.9,25.9,0,0,0-4.8-.4l.7.4H3.7a2.5,2.5,0,0,0-1.9.5,3.2,3.2,0,0,0,.9.3L4,11.2l-1.1.3-1.4.7c-.5.3-.6.5-.4.6H2.2L3.7,12l-1.1.8a5.3,5.3,0,0,0-1.3,1.3,4.1,4.1,0,0,0,1.6-.3L5,12.4,3.2,14.1a2.7,2.7,0,0,0-.6,1.2l.9-.3,1-.7,1.1-1-1,1.3a10.1,10.1,0,0,0-.7,1.5,1.7,1.7,0,0,0,1.2-.5,2.7,2.7,0,0,0,1-1.1,2,2,0,0,1-.4.8l-.3,1a1.5,1.5,0,0,0,1.1-.4,2,2,0,0,0,.9-.9c.1,0,.2.1.2.3s0,.6.3.7l.8-.2.7.2h.5l.7.2c.2,0,.3-.2.4-.2a1.1,1.1,0,0,0,.8.3.5.5,0,0,0,.2-.4l.6.2c.3,0,.1,0,.3.1l.2.3c.2.1.1.2.1.4a3.4,3.4,0,0,1-.8.9l-.6,1.1a4.3,4.3,0,0,0-.1.5,2.2,2.2,0,0,0,.1.8,4.1,4.1,0,0,0-.1,1.1c.1.2.2.5.5.6s.2.2.4.1a.7.7,0,0,1-.1-.5l.3-.7.8-.5c.2,0,.3-.1.5-.3h.5a1.6,1.6,0,0,1,.4.7,1.6,1.6,0,0,1,.3.9,2.4,2.4,0,0,1,0,1.2,2.4,2.4,0,0,1,0,1.2.9.9,0,0,1-.5.3c-.2,0-.3.3-.5.3l-.6.2c-.2,0-.3.1-.4.3s0,.9.1.7,0-.5.2-.4h.1v.5c-.1.2-.1.4-.2.5a.6.6,0,0,0,.4.8.5.5,0,0,1-.1-.6H14c.1,0,.1-.1,0-.2l.3.2c.2,0,.2-.1.2-.1s-.1.1-.3-.1,0-.3,0-.3,0-.1.3,0,.3-.5.5-.7h.3l.6.4h.2c.1,0,0,.1-.1.1H15a.7.7,0,0,0-.3.6l.2.2a.4.4,0,0,1,.3-.5l.3.2H16c.2,0,.1.1.1.2l-.3.4c-.1,0-.5.5-.5.5s-.2.4-.1.6a.1.1,0,0,0,.1.1c-.1,0,.1-.6.3-.5h.3c.1-.2.1-.4.2-.4s.2-.3.3-.4h.4c.1.1.1.2.1.4s0,.2.1.2,0,.6-.1.6a.6.6,0,0,0,.5-.6c0-.1,0-.1-.1-.2v-.2c0-.1-.1-.3-.1-.4l.3.2a.4.4,0,0,1-.1.3s.1.1.2-.3l-.4-.6.5-.6.3.3v-.2l.5.4c.3.1.2-.2.2-.2l.3.3h.3a.6.6,0,0,0,.6,0c.1-.1-.1-.6.1-.4h.3c0-.1-.1-.2-.1-.3s.4.2.4.1a.8.8,0,0,0-.2-.5c.2,0,.3.2.4.3l-.4-.6a1.6,1.6,0,0,0,.8.6c.1,0-.1-.3-.1-.3l.7.7h.5l.7.6.6.2c.1,0-.2-.4-.2-.4l.7.7h.6c.1,0,0-.3-.1-.6L24,24.9l1.4,1.7c.3.2.3,0,.3,0s0-.1-.1-.2l.4.3.9.4c.2.1.4-.1.3-.2s-.5-.8-.2-.6h.6s-1-1.1-.9-.9a1.1,1.1,0,0,0,.8,0l-.9-.5H27c.3,0,.4-.1.2-.3L25,23.5l-1.1-.9-1.2-1.3a3.6,3.6,0,0,0-1.2-.8l.3-.2a.9.9,0,0,0,.3-.6h.6c.4.1.2-.6.2-.6h.9a.6.6,0,0,0,.1-.7c.2.1.4,0,.6,0s.1-.6.1-.6a2.2,2.2,0,0,0,.9.7.6.6,0,0,0,.6,0c.1,0,.1-.3.1-.3h.3c.3-.1.3-.6.3-.8l-.3-.7h.7v-.5l.4-.3c.1-.1,0-.2,0-.4s.1-.3.1-.4l.3-.4a.6.6,0,0,0-.1-.4,1,1,0,0,0,.4-.5c0-.3-.3-.4-.1-.4a.4.4,0,0,0,.1-.5c0-.1-.1-.2-.2-.3l.2-.2c.1-.1.2-.3.1-.4l.6-.2c.1-.1.2-.2.1-.3l.3-.2c.1-.1,0-.3,0-.3s.8-.1.6-.4l-.9-.6a5.5,5.5,0,0,0,1.8.6c-.2-.2-.3-.4-.5-.5l-1.1-.8a9,9,0,0,0-2.2-.6l2.2.4C29.9,9.2,31.3,9.9,30.9,9.5ZM17.3,24.7a2.2,2.2,0,0,1-.5.8l-.3.3h-.3c.2,0,.1-.6-.2-.6V25h-.6c0-.1,0-.2.1-.2a.1.1,0,0,0,.1-.1c.1,0,.2-.2.3-.1s.1.1.1.2.1-.1.2-.2.1,0,.1.1.1.1.1,0l.2-.3c-.1-.1,0-.3,0-.4h.1c.1.1.1-.1.1-.2l.2-.2c0-.1,0-.2.1-.2s.1.4.1.7A1.7,1.7,0,0,1,17.3,24.7Z"></path>
    </symbol>
    
    
    <symbol id="adidas" viewBox="-3 -8 32 32" fill="none">
        <path fill-rule="evenodd" clip-rule="evenodd" d="M18.5249 12.366H24.0819L20.6226 6.48799L16.7972 0L15.2218 0.966649L12.7194 2.50059L15.2218 6.75008L18.5249 12.366ZM26.4619 15.0041C26.5423 15.0859 26.6012 15.2314 26.6392 15.438H27.8608C27.8608 15.1332 27.8 14.8708 27.6789 14.6521C27.5576 14.4327 27.3765 14.2562 27.1365 14.1234C27.1111 14.106 27.0856 14.0928 27.0563 14.0801C26.7234 13.9213 26.281 13.8395 25.7292 13.8395C25.0591 13.8395 24.5538 14.0201 24.2166 14.3854C23.9472 14.6775 23.8165 15.0342 23.8165 15.4548C23.8165 15.9796 24.0694 16.3574 24.5832 16.6022C24.7769 16.6969 25.2488 16.8301 25.9986 16.9935C26.5005 17.1054 26.7528 17.2641 26.7528 17.4661C26.7528 17.5861 26.7025 17.6895 26.5927 17.7841C26.4534 17.9043 26.243 17.9647 25.9606 17.9647C25.586 17.9647 25.3206 17.9002 25.1645 17.7754C25.0087 17.6553 24.9284 17.4789 24.9284 17.2555H23.6479C23.6479 17.5521 23.7092 17.8105 23.8319 18.0318C23.9545 18.2532 24.1387 18.4368 24.3852 18.583C24.7769 18.8108 25.2911 18.9268 25.9272 18.9268C26.3528 18.9268 26.7319 18.8541 27.0561 18.7121C27.1236 18.682 27.1824 18.6521 27.2458 18.6174C27.7473 18.334 28 17.8828 28 17.2641C28 16.7573 27.7432 16.3788 27.2247 16.1294C27.1888 16.1113 27.1408 16.0931 27.0857 16.0721L27.0857 16.0721L27.0561 16.0608C26.7994 15.9707 26.3821 15.8588 25.8004 15.7302C25.2911 15.6141 25.0337 15.4634 25.0337 15.2747C25.0337 15.1414 25.0802 15.0342 25.1689 14.9567C25.2866 14.8534 25.4971 14.8021 25.8004 14.8021C26.1084 14.8021 26.3313 14.8708 26.4619 15.0041ZM23.134 18.8581H21.9835V18.5916C21.5959 18.8495 21.1324 19 20.6355 19H20.6226C19.2491 18.9914 18.1326 17.8481 18.1326 16.4474C18.1326 15.0469 19.2491 13.9041 20.6226 13.8954H20.6355C21.1324 13.8954 21.5959 14.0461 21.9835 14.3034V14.0242H23.134V16.4474V18.8581ZM21.9835 16.1814V16.7141C21.8614 17.3587 21.3012 17.8527 20.6355 17.8527H20.6226C19.8687 17.8441 19.2577 17.2167 19.2577 16.4474C19.2577 15.6787 19.8687 15.0514 20.6226 15.0467H20.6355C21.3012 15.0467 21.8614 15.5368 21.9835 16.1814ZM16.5827 18.8581H17.7326V16.4474V12.366H16.5827V14.3034C16.1906 14.0461 15.7317 13.8954 15.2342 13.8954H15.2218C13.8484 13.9041 12.7319 15.0469 12.7319 16.4474C12.7319 17.8481 13.8484 18.9914 15.2218 19H15.2342C15.7316 19 16.1906 18.8495 16.5827 18.5916V18.8581ZM16.5827 16.7141V16.1814C16.4604 15.5368 15.8997 15.0467 15.2342 15.0467H15.2218C14.4675 15.0514 13.8568 15.6787 13.8568 16.4474C13.8568 17.2167 14.4675 17.8441 15.2218 17.8527H15.2342C15.8997 17.8527 16.4604 17.3587 16.5827 16.7141ZM16.5783 12.366H11.0252L7.94163 7.13267L7.80696 6.90469L7.94163 6.82329L11.8893 4.39945L15.2218 10.054L16.5783 12.366ZM12.2808 18.8581H11.0297V13.8953H12.2808V18.8581ZM11.0297 13.5128H12.2808V12.3914H11.0297V13.5128ZM9.30655 18.8581H10.4565V16.4474V12.366H9.30655V14.3034C8.91496 14.0461 8.45152 13.8954 7.95415 13.8954H7.94163C6.56821 13.9041 5.45171 15.0469 5.45171 16.4474C5.45171 17.8481 6.56821 18.9914 7.94163 19H7.95415C8.45152 19 8.91496 18.8495 9.30655 18.5916V18.8581ZM9.30655 16.7141V16.1814C9.18439 15.5368 8.62413 15.0467 7.95415 15.0467H7.94163C7.18735 15.0514 6.57672 15.6787 6.57672 16.4474C6.57672 17.2167 7.18735 17.8441 7.94163 17.8527H7.95415C8.62413 17.8527 9.18439 17.3587 9.30655 16.7141ZM9.07907 12.366H3.52213L2.89851 11.3046L6.98081 8.80395L7.94163 10.4321L9.07907 12.366ZM3.85082 18.8581H5.00078V16.4474V14.0242H3.85082V14.3034C3.45869 14.0461 2.99524 13.8954 2.49842 13.8954H2.48543C1.11651 13.9041 0 15.0469 0 16.4474C0 17.8481 1.11651 18.9914 2.48543 19H2.49842C2.99524 19 3.45869 18.8495 3.85082 18.5916V18.8581ZM3.85082 16.7141V16.1814C3.72866 15.5368 3.16832 15.0467 2.49842 15.0467C2.49394 15.0467 2.48992 15.0467 2.48543 15.0467C1.73556 15.0514 1.12493 15.6787 1.12493 16.4474C1.12493 17.2167 1.73556 17.8441 2.48543 17.8527C2.48992 17.8527 2.49394 17.8527 2.49842 17.8527C3.16832 17.8527 3.72866 17.3587 3.85082 16.7141Z" fill="#0A0B09"/>
    </symbol>

</svg>